<svg width="44" height="43" viewBox="0 0 44 43" fill="none" xmlns="http://www.w3.org/2000/svg">
<path d="M0 3.55932C0 1.59356 0.915781 0 2.04545 0H6.95455C8.08422 0 9 1.59356 9 3.55932V38.4407C9 40.4064 8.08422 42 6.95455 42H2.04545C0.915781 42 0 40.4064 0 38.4407V3.55932Z" fill="url(#paint0_linear_7_418)"/>
<path d="M0 7.11864H9V11.3898H0V7.11864Z" fill="#63372C"/>
<path d="M0 31.322H9V35.5932H0V31.322Z" fill="#63372C"/>
<path d="M33.4214 3.98634C33.325 2.01604 34.1181 0.376179 35.1928 0.323613L39.8631 0.0951812C40.9378 0.0426149 41.8871 1.59724 41.9835 3.56754L43.6936 38.5295C43.7899 40.4998 42.9968 42.1396 41.9221 42.1922L37.2519 42.4206C36.1772 42.4732 35.2278 40.9185 35.1314 38.9482L33.4214 3.98634Z" fill="url(#paint1_linear_7_418)"/>
<path d="M34.7825 31.8132L43.3446 31.3944L43.554 35.6754L34.9919 36.0942L34.7825 31.8132Z" fill="#63372C"/>
<path d="M9.08663 7.30952C8.76999 5.52044 9.34854 3.93117 10.3788 3.7598L14.8561 3.01506C15.8864 2.84368 16.9783 4.15508 17.2949 5.94417L22.9134 37.6905C23.23 39.4796 22.6515 41.0688 21.6212 41.2402L17.1439 41.9849C16.1136 42.1563 15.0217 40.8449 14.7051 39.0558L9.08663 7.30952Z" fill="url(#paint2_linear_7_418)"/>
<path d="M12.3625 19.637C12.0528 18.0016 13.1692 16.4325 14.8561 16.1322C16.543 15.8319 18.1615 16.9143 18.4713 18.5497L19.9073 26.1326C20.217 27.768 19.1006 29.3371 17.4137 29.6374C15.7269 29.9377 14.1083 28.8553 13.7986 27.2199L12.3625 19.637Z" fill="url(#paint3_linear_7_418)"/>
<path d="M9.76294 11.1685L18.0356 9.79996L18.2837 11.2093L10.011 12.5778L9.76294 11.1685Z" fill="#63372C"/>
<path d="M10.2803 14.0787L18.5075 12.7177L18.7554 14.1265L10.5283 15.4874L10.2803 14.0787Z" fill="#63372C"/>
<path d="M13.5698 32.8119L21.943 31.4267L22.191 32.8355L13.8178 34.2206L13.5698 32.8119Z" fill="#63372C"/>
<path d="M14.0314 35.6167L22.3855 34.2347L22.6334 35.6435L14.2793 37.0254L14.0314 35.6167Z" fill="#63372C"/>
<path d="M26.2148 9.38291C26.3667 7.75165 27.2135 6.49662 28.1063 6.57972L31.9861 6.94083C32.8789 7.02392 33.4795 8.41368 33.3277 10.0449L30.6336 38.9907C30.4818 40.622 29.6349 41.877 28.7421 41.7939L24.8624 41.4328C23.9696 41.3497 23.3689 39.9599 23.5207 38.3287L26.2148 9.38291Z" fill="url(#paint4_linear_7_418)"/>
<path d="M28.1869 11.3196C28.2558 10.5793 28.9486 10.0384 29.7343 10.1115C30.5199 10.1847 31.101 10.8441 31.0321 11.5844L30.8449 13.5952C30.776 14.3355 30.0832 14.8764 29.2976 14.8033C28.5119 14.7302 27.9309 14.0707 27.9998 13.3304L28.1869 11.3196Z" fill="#F2E5D7"/>
<defs>
<linearGradient id="paint0_linear_7_418" x1="21.8507" y1="0" x2="21.8507" y2="42.4219" gradientUnits="userSpaceOnUse">
<stop stop-color="#C97D60"/>
<stop offset="0.475" stop-color="#FFC2AB"/>
<stop offset="0.975" stop-color="#C97D60" stop-opacity="0.592157"/>
</linearGradient>
<linearGradient id="paint1_linear_7_418" x1="21.8507" y1="0" x2="21.8507" y2="42.4219" gradientUnits="userSpaceOnUse">
<stop stop-color="#C97D60"/>
<stop offset="0.475" stop-color="#FFC2AB"/>
<stop offset="0.975" stop-color="#C97D60" stop-opacity="0.592157"/>
</linearGradient>
<linearGradient id="paint2_linear_7_418" x1="21.8507" y1="0" x2="21.8507" y2="42.4219" gradientUnits="userSpaceOnUse">
<stop stop-color="#C97D60"/>
<stop offset="0.475" stop-color="#FFC2AB"/>
<stop offset="0.975" stop-color="#C97D60" stop-opacity="0.592157"/>
</linearGradient>
<linearGradient id="paint3_linear_7_418" x1="21.8507" y1="0" x2="21.8507" y2="42.4219" gradientUnits="userSpaceOnUse">
<stop stop-color="#BCAA99"/>
<stop offset="0.5" stop-color="#E8D4C2"/>
<stop offset="1" stop-color="#BCAA99"/>
</linearGradient>
<linearGradient id="paint4_linear_7_418" x1="21.8507" y1="0" x2="21.8507" y2="42.4219" gradientUnits="userSpaceOnUse">
<stop stop-color="#C97D60"/>
<stop offset="0.475" stop-color="#FFC2AB"/>
<stop offset="0.975" stop-color="#C97D60" stop-opacity="0.592157"/>
</linearGradient>
</defs>
</svg>
