<svg width="47" height="47" viewBox="0 0 47 47" fill="none" xmlns="http://www.w3.org/2000/svg">
<path d="M20.1912 0.0576891C9.05719 0.0576891 0 9.11488 0 20.2489C0 31.3829 9.05719 40.4401 20.1912 40.4401C23.5949 40.4401 26.9408 39.6324 29.7676 38.0748C29.994 38.3473 30.2451 38.5984 30.5175 38.8248L36.2865 44.5937C36.8191 45.1931 37.4687 45.6773 38.1953 46.0165C38.9219 46.3558 39.7101 46.543 40.5117 46.5666C41.3132 46.5902 42.1111 46.4497 42.8564 46.1538C43.6017 45.8578 44.2786 45.4127 44.8457 44.8457C45.4127 44.2786 45.8578 43.6017 46.1538 42.8564C46.4497 42.1111 46.5902 41.3132 46.5666 40.5117C46.543 39.7102 46.3558 38.9219 46.0165 38.1953C45.6773 37.4687 45.1931 36.8191 44.5937 36.2865L38.8248 30.5176C38.5438 30.2364 38.2344 29.9851 37.9018 29.7676C39.4594 26.9408 40.4401 23.6525 40.4401 20.1912C40.4401 9.05719 31.3829 0 20.2489 0L20.1912 0.0576891ZM20.1912 5.8266C28.21 5.8266 34.6135 12.2301 34.6135 20.2489C34.6135 24.0564 33.2289 27.5754 30.806 30.1714C30.7483 30.2291 30.6906 30.2868 30.6329 30.3445C30.3604 30.5709 30.1094 30.822 29.883 31.0944C27.3446 33.402 23.8833 34.7289 20.1335 34.7289C12.1147 34.7289 5.71122 28.3254 5.71122 20.3066C5.71122 12.2878 12.1147 5.88429 20.1335 5.88429L20.1912 5.8266Z" fill="#FFBCB5"/>
</svg>
