<svg width="41" height="47" viewBox="0 0 41 47" fill="none" xmlns="http://www.w3.org/2000/svg">
<path d="M5.80416 0C5.39787 0 5.04962 0.0580416 4.70137 0.174125C2.43775 0.638458 0.638458 2.43775 0.174125 4.70137C0 5.04962 0 5.39787 0 5.80416V37.7271C0 42.5445 3.88879 46.4333 8.70624 46.4333H40.6291V40.6291H8.70624C7.08108 40.6291 5.80416 39.3522 5.80416 37.7271C5.80416 36.1019 7.08108 34.825 8.70624 34.825H40.6291V2.90208C40.6291 1.27692 39.3522 0 37.727 0H34.825V17.4125L29.0208 11.6083L23.2166 17.4125V0H5.80416Z" fill="#FFBCB5"/>
</svg>
